<?xml version="1.0" encoding="UTF-8"?>
<svg version="1.1" xmlns="http://www.w3.org/2000/svg" width="512" height="512">
<path d="M0 0 C1.96838333 -0.01268921 1.96838333 -0.01268921 3.97653198 -0.02563477 C5.42389041 -0.01980231 6.8712476 -0.01365783 8.31860352 -0.00723267 C9.84815852 -0.01129931 11.37771058 -0.01664171 12.90725708 -0.02316284 C17.0559981 -0.0368313 21.20451514 -0.03153978 25.35326004 -0.02202559 C29.6964503 -0.01442655 34.03962148 -0.02147528 38.3828125 -0.02618408 C45.67622315 -0.03164092 52.96954264 -0.02445191 60.26293945 -0.01016235 C68.69325917 0.00616404 77.12336121 0.00087548 85.55367565 -0.01564157 C92.7937287 -0.02925848 100.03371625 -0.0311751 107.27377796 -0.02332556 C111.59709554 -0.01865017 115.92031083 -0.01802051 120.24362183 -0.02793503 C124.30828915 -0.03660541 128.37267603 -0.0305816 132.43731308 -0.01325226 C133.92844044 -0.00928778 135.41959144 -0.01042082 136.91070938 -0.01704025 C138.94713748 -0.0252465 140.98361721 -0.01312769 143.02001953 0 C144.15931412 0.00113108 145.2986087 0.00226215 146.47242737 0.00342751 C149.89063184 0.42825623 151.75148303 1.35355118 154.51000977 3.38095093 C157.28852438 7.03533135 158.05867609 10.26952319 158.67797852 14.77548218 C158.8487793 15.97753296 159.01958008 17.17958374 159.19555664 18.4180603 C159.44402344 20.28687866 159.44402344 20.28687866 159.69750977 22.19345093 C159.87475586 23.45866577 160.05200195 24.72388062 160.23461914 26.0274353 C160.66976654 29.14403154 161.09450969 32.2616849 161.51000977 35.38095093 C163.24903564 35.40282471 163.24903564 35.40282471 165.02319336 35.42514038 C169.36593932 35.48355391 173.70818988 35.56078055 178.05053711 35.6434021 C179.92219949 35.6764504 181.79395673 35.70454343 183.66577148 35.72738647 C203.69141132 35.97837449 203.69141132 35.97837449 211.51000977 39.38095093 C212.52192383 39.80634155 213.53383789 40.23173218 214.57641602 40.67001343 C227.1520225 47.40061972 235.60990409 57.48062109 239.96704102 71.08016968 C241.60594586 78.02488158 241.65396691 84.79493013 241.64372253 91.8992157 C241.64598809 93.05378633 241.64825365 94.20835697 241.65058786 95.39791459 C241.65581065 98.58944925 241.65657486 101.78094834 241.65539348 104.9724859 C241.65518892 108.41976152 241.66071352 111.86702882 241.66545105 115.31430054 C241.67374603 122.06315873 241.67650537 128.81200818 241.67706343 135.56087104 C241.67753912 141.04832007 241.67959653 146.53576622 241.68276405 152.02321434 C241.69156737 167.59172267 241.69618392 183.16022411 241.69543358 198.72873495 C241.69537365 199.98683698 241.69537365 199.98683698 241.6953125 201.27035522 C241.69527162 202.11011759 241.69523074 202.94987996 241.69518862 203.81508967 C241.69478221 217.42317233 241.70435137 231.03122733 241.71845087 244.63930199 C241.73282421 258.62234731 241.73972053 272.60537913 241.73885709 286.58843201 C241.73852546 294.43468691 241.74125771 302.28091279 241.75203514 310.12716103 C241.76115274 316.80764705 241.76330504 323.48809089 241.75652572 330.16858045 C241.75326691 333.57437062 241.75318064 336.98007993 241.76187897 340.38586235 C241.76960266 344.08455862 241.76495133 347.78304347 241.75724792 351.48173523 C241.76239149 352.54897034 241.76753505 353.61620546 241.77283448 354.71578103 C241.70001823 370.57162742 237.45603014 383.01215076 226.44360352 394.54501343 C217.21738733 403.35860814 206.84174591 406.16663918 194.51000977 408.38095093 C194.8200293 408.85588989 195.13004883 409.33082886 195.44946289 409.82015991 C202.18388585 420.14357938 208.87475351 430.4934865 215.51000977 440.88095093 C221.96395197 450.98320928 228.47469029 461.0467354 235.01928711 471.09042358 C237.84496067 475.43213163 240.65896967 479.78139979 243.46801758 484.13388062 C245.8211847 487.77877892 248.18619252 491.41524154 250.56860352 495.04110718 C251.07117676 495.80914673 251.57375 496.57718628 252.09155273 497.36849976 C253.05184192 498.83552908 254.01550824 500.30035551 254.9831543 501.76254272 C255.41611816 502.42552368 255.84908203 503.08850464 256.29516602 503.77157593 C256.67552002 504.34939819 257.05587402 504.92722046 257.44775391 505.52255249 C258.51000977 507.38095093 258.51000977 507.38095093 260.51000977 512.38095093 C237.41000977 512.38095093 214.31000977 512.38095093 190.51000977 512.38095093 C187.93528359 506.58781703 185.46631321 500.87007727 183.26000977 494.94345093 C182.85782227 493.88480835 182.85782227 493.88480835 182.44750977 492.80477905 C180.51000977 487.62987472 180.51000977 487.62987472 180.51000977 485.38095093 C108.57000977 485.38095093 36.63000977 485.38095093 -37.48999023 485.38095093 C-38.47999023 488.68095093 -39.46999023 491.98095093 -40.48999023 495.38095093 C-41.5047125 498.25094899 -42.53396729 501.0996544 -43.61499023 503.94345093 C-43.87924805 504.65307983 -44.14350586 505.36270874 -44.41577148 506.09384155 C-46.36028593 511.25124663 -46.36028593 511.25124663 -47.48999023 512.38095093 C-49.66804742 512.47524435 -51.84920303 512.49837631 -54.02929688 512.49447632 C-54.71219284 512.49462234 -55.39508881 512.49476837 -56.09867859 512.49491882 C-58.36586638 512.49421969 -60.63297297 512.48642733 -62.90014648 512.47860718 C-64.46813411 512.476743 -66.03612231 512.4753191 -67.60411072 512.47431946 C-71.73875526 512.47049427 -75.87336489 512.46066399 -80.00799561 512.44961548 C-84.22399422 512.43940137 -88.43999845 512.43482184 -92.65600586 512.42977905 C-100.93401671 512.41904171 -109.21199913 512.40196529 -117.48999023 512.38095093 C-116.2865255 509.30805906 -115.09098856 506.53014813 -113.27514648 503.77157593 C-112.84242432 503.1089978 -112.40970215 502.44641968 -111.96386719 501.76376343 C-111.49811279 501.0599353 -111.0323584 500.35610718 -110.55249023 499.63095093 C-109.54719613 498.09454871 -108.54199008 496.55808888 -107.53686523 495.02157593 C-106.77019531 493.8546521 -106.77019531 493.8546521 -105.98803711 492.66415405 C-103.74513761 489.24570619 -101.52284005 485.81407228 -99.30249023 482.38095093 C-98.86090576 481.69911743 -98.41932129 481.01728394 -97.96435547 480.31478882 C-93.8239403 473.91465273 -89.7197764 467.49147413 -85.61499023 461.06845093 C-79.13151144 450.92491911 -72.59271083 440.81903449 -66.02026367 430.73300171 C-62.97474599 426.05200022 -59.94492375 421.36082822 -56.91455078 416.67001343 C-55.12176131 413.89619917 -53.3220598 411.12905528 -51.48999023 408.38095093 C-52.36139648 408.2339978 -53.23280273 408.08704468 -54.13061523 407.93563843 C-68.58888963 405.21297637 -80.41819679 399.62765443 -89.56030273 387.67391968 C-97.02263829 376.5116395 -98.64099469 366.12555972 -98.63043213 352.92047119 C-98.63340325 351.75999901 -98.63637437 350.59952683 -98.63943553 349.40388882 C-98.64659872 346.19115515 -98.64929352 342.97845412 -98.650033 339.76571369 C-98.65188852 336.29724851 -98.65943838 332.82879481 -98.66616821 329.3603363 C-98.67973221 321.77955073 -98.68577332 314.19877045 -98.69017887 306.61797476 C-98.69294473 301.88100797 -98.69718273 297.14404321 -98.70168304 292.40707779 C-98.7138735 279.28197038 -98.72417305 266.15686458 -98.72755814 253.03175163 C-98.7277777 252.1922119 -98.72799727 251.35267216 -98.72822349 250.48769183 C-98.72844177 249.64618576 -98.72866004 248.8046797 -98.72888494 247.93767345 C-98.7293284 246.23256802 -98.72977496 244.5274626 -98.73022461 242.82235718 C-98.73044604 241.9765727 -98.73066747 241.13078823 -98.73089561 240.25937392 C-98.7348416 226.56203472 -98.75229055 212.86474878 -98.77558413 199.16743015 C-98.79932717 185.09174567 -98.81176134 171.01608789 -98.81292605 156.94038308 C-98.81384119 149.04261188 -98.81955267 141.14491008 -98.83774567 133.24715805 C-98.85318659 126.52057913 -98.85824368 119.79409106 -98.85000756 113.06749777 C-98.84611504 109.63914986 -98.84696164 106.21098467 -98.86106491 102.78265953 C-98.87380448 99.05606142 -98.86789607 95.32992783 -98.85748291 91.60333252 C-98.86553931 90.53345907 -98.87359572 89.46358562 -98.88189626 88.36129177 C-98.78338968 73.21932 -94.25810973 60.6382698 -83.81030273 49.63876343 C-73.75045258 39.84988567 -63.07524722 36.33661349 -49.25170898 36.06454468 C-48.37094193 36.04376358 -47.49017487 36.02298248 -46.5827179 36.00157166 C-43.78105144 35.93641156 -40.97929466 35.87734772 -38.17749023 35.81845093 C-36.27318418 35.77523378 -34.36888711 35.73161848 -32.46459961 35.68759155 C-27.80648805 35.5807647 -23.14828601 35.47940353 -18.48999023 35.38095093 C-18.38452881 34.58922485 -18.27906738 33.79749878 -18.17041016 32.98178101 C-17.68446304 29.38397936 -17.18117033 25.78881104 -16.67749023 22.19345093 C-16.5118457 20.94757202 -16.34620117 19.70169312 -16.17553711 18.4180603 C-16.00473633 17.21600952 -15.83393555 16.01395874 -15.65795898 14.77548218 C-15.50609131 13.67051392 -15.35422363 12.56554565 -15.19775391 11.42709351 C-14.19851558 7.12647376 -12.87971002 4.40233582 -9.28689575 1.76177025 C-5.95227402 0.11548292 -3.71027133 0.00368351 0 0 Z M-9.48999023 407.38095093 C-18.87639883 426.96559673 -18.87639883 426.96559673 -23.48999023 447.38095093 C39.21000977 447.38095093 101.91000977 447.38095093 166.51000977 447.38095093 C162.04284561 433.97945847 157.39358658 420.63637371 152.51000977 407.38095093 C99.05000977 407.38095093 45.59000977 407.38095093 -9.48999023 407.38095093 Z " fill="#7FBB92" transform="translate(184.489990234375,-0.380950927734375)"/>
<path d="M0 0 C0.65880661 0.00141495 1.31761322 0.0028299 1.99638367 0.00428772 C4.08487637 0.00985125 6.17325886 0.02239678 8.26171875 0.03515625 C9.68424324 0.04017597 11.10676941 0.04473805 12.52929688 0.04882812 C16.00263952 0.05980868 19.47591836 0.0770479 22.94921875 0.09765625 C22.94921875 0.42765625 22.94921875 0.75765625 22.94921875 1.09765625 C22.19898438 1.24460938 21.44875 1.3915625 20.67578125 1.54296875 C7.58197016 4.41239335 -3.17589111 11.06862375 -10.80078125 22.22265625 C-18.29969142 35.11251433 -18.58179816 46.91790227 -18.30078125 61.41015625 C-18.28066934 63.22979787 -18.26242693 65.04946116 -18.24609375 66.86914062 C-18.2025068 71.27919151 -18.13374416 75.6881776 -18.05078125 80.09765625 C-17.58929688 79.63875 -17.1278125 79.17984375 -16.65234375 78.70703125 C-16.00007813 78.0934375 -15.3478125 77.47984375 -14.67578125 76.84765625 C-14.04929688 76.244375 -13.4228125 75.64109375 -12.77734375 75.01953125 C-2.31561644 67.64536243 8.80477866 68.5097345 21.1015625 68.56640625 C23.16842328 68.5637073 25.23528282 68.55982154 27.30213928 68.55480957 C31.62171588 68.54893219 35.94096026 68.55741979 40.26049805 68.57617188 C45.77248854 68.59894575 51.28369912 68.58583668 56.79566097 68.56188202 C61.06044797 68.54736417 65.3250529 68.55205766 69.58984566 68.56239319 C71.6210394 68.56504469 73.65225015 68.56184677 75.683424 68.55247498 C101.112105 68.4608836 101.112105 68.4608836 111.2265625 78.09765625 C117.41584549 85.28339977 119.08866673 92.07523928 119.15795898 101.34765625 C119.16774277 102.17752548 119.17752655 103.00739471 119.18760681 103.8624115 C119.21750352 106.60747696 119.23893623 109.35249365 119.2578125 112.09765625 C119.26438433 113.03884308 119.27095615 113.98002991 119.27772713 114.94973755 C119.31030354 119.93669125 119.33475271 124.92362383 119.35424805 129.91064453 C119.37201787 134.02131598 119.40677105 138.13129586 119.45678711 142.24169922 C119.51727741 147.21957844 119.54776367 152.19681961 119.55742073 157.17504883 C119.56593122 159.06314522 119.58463919 160.95122661 119.61416435 162.83911133 C119.78985186 174.71722603 119.35405516 184.4199988 111.36082458 194.00170898 C104.35786812 200.72794272 95.28441317 202.70128287 85.88476562 202.63110352 C84.9337648 202.63971909 83.98276398 202.64833466 83.00294495 202.6572113 C79.8910013 202.67972646 76.77996872 202.67315956 73.66796875 202.6640625 C71.48661027 202.66930405 69.30525405 202.67558248 67.12390137 202.68284607 C62.56475108 202.69322333 58.00591345 202.68872652 53.44677734 202.67407227 C47.62295363 202.65687904 41.80011606 202.68040133 35.97640228 202.71556187 C31.47574405 202.73758735 26.97531998 202.73608202 22.47462463 202.72779655 C20.32815977 202.72698005 18.18167718 202.73378543 16.03526306 202.74856758 C-6.03904465 202.87731861 -6.03904465 202.87731861 -13.05078125 197.09765625 C-14.70078125 195.44765625 -16.35078125 193.79765625 -18.05078125 192.09765625 C-18.05078125 213.87765625 -18.05078125 235.65765625 -18.05078125 258.09765625 C-15.08078125 255.45765625 -12.11078125 252.81765625 -9.05078125 250.09765625 C-0.53418886 245.31081275 8.23239925 243.42778029 17.76171875 245.796875 C29.73417482 249.73780846 37.24029021 256.01495422 43.046875 267.21484375 C46.08586717 274.70631281 46.32847865 284.11110121 44.1875 291.8515625 C43.24484501 294.05357474 42.19264115 296.05272464 40.94921875 298.09765625 C40.39234375 299.10828125 39.83546875 300.11890625 39.26171875 301.16015625 C32.17085883 310.16746479 24.61157381 315.11999061 13.18359375 316.578125 C3.12507999 317.28204927 -4.77153226 314.9634771 -13.05078125 309.09765625 C-14.8739317 307.17911184 -16.44034172 305.20706312 -18.05078125 303.09765625 C-18.13938 307.01417528 -18.19170042 310.93042999 -18.23828125 314.84765625 C-18.26341797 315.93949219 -18.28855469 317.03132813 -18.31445312 318.15625 C-18.44579028 332.95356915 -14.54786152 346.15728732 -4.27734375 357.0625 C1.78539175 362.60405298 8.78180806 365.67175299 16.50390625 368.23828125 C18.77333041 369.03584246 20.81236527 370.00296367 22.94921875 371.09765625 C19.05737423 371.1982507 15.16605621 371.26991466 11.27319336 371.31738281 C9.31532099 371.34684952 7.35780776 371.39773383 5.40039062 371.44921875 C-9.85359975 371.60447565 -22.58919693 367.2451382 -33.86328125 356.78515625 C-44.66410784 345.20729177 -47.20344788 331.92028356 -47.19122314 316.63717651 C-47.19419427 315.47670433 -47.19716539 314.31623215 -47.20022655 313.12059414 C-47.20738973 309.90786047 -47.21008453 306.69515945 -47.21082401 303.48241901 C-47.21267953 300.01395383 -47.2202294 296.54550013 -47.22695923 293.07704163 C-47.24052323 285.49625605 -47.24656434 277.91547577 -47.25096989 270.33468008 C-47.25373575 265.59771329 -47.25797374 260.86074853 -47.26247406 256.12378311 C-47.27466452 242.9986757 -47.28496407 229.87356991 -47.28834915 216.74845695 C-47.28856872 215.90891722 -47.28878828 215.06937748 -47.2890145 214.20439715 C-47.28923278 213.36289108 -47.28945106 212.52138502 -47.28967595 211.65437877 C-47.29011941 209.94927335 -47.29056597 208.24416792 -47.29101562 206.5390625 C-47.29123705 205.69327802 -47.29145848 204.84749355 -47.29168662 203.97607924 C-47.29563262 190.27874004 -47.31308157 176.5814541 -47.33637515 162.88413547 C-47.36011818 148.808451 -47.37255236 134.73279322 -47.37371707 120.6570884 C-47.3746322 112.7593172 -47.38034368 104.8616154 -47.39853668 96.96386337 C-47.41397761 90.23728445 -47.4190347 83.51079638 -47.41079858 76.7842031 C-47.40690606 73.35585518 -47.40775265 69.92768999 -47.42185593 66.49936485 C-47.4345955 62.77276674 -47.42868708 59.04663315 -47.41827393 55.32003784 C-47.42633033 54.25016439 -47.43438673 53.18029094 -47.44268727 52.07799709 C-47.3441807 36.93602533 -42.81890074 24.35497512 -32.37109375 13.35546875 C-23.11360689 4.3473418 -12.96972593 -0.05519032 0 0 Z " fill="#69AF81" transform="translate(133.05078125,35.90234375)"/>
<path d="M0 0 C1.38567673 -0.01467567 1.38567673 -0.01467567 2.79934692 -0.02964783 C5.86670484 -0.05964147 8.93401892 -0.08100133 12.00146484 -0.09985352 C13.04877148 -0.10642534 14.09607811 -0.11299717 15.17512131 -0.11976814 C20.72155151 -0.15238329 26.26796235 -0.17682575 31.81445312 -0.19628906 C36.40262898 -0.21408655 40.99018844 -0.24887928 45.578125 -0.29882812 C51.11776582 -0.35907065 56.65683599 -0.38977117 62.19678879 -0.39946175 C64.30588794 -0.40801294 66.41497201 -0.42682266 68.52388382 -0.45620537 C71.4827403 -0.49520127 74.43938418 -0.49614352 77.3984375 -0.48828125 C78.2642041 -0.50828186 79.1299707 -0.52828247 80.02197266 -0.54888916 C86.58182733 -0.47095278 90.4305485 1.62761462 95.08740234 6.20874023 C98.49569997 10.29149718 98.52201805 14.23500234 98.49145508 19.36035156 C98.49831833 20.16753128 98.50518158 20.974711 98.51225281 21.80635071 C98.53051534 24.46800459 98.52668318 27.12906853 98.52099609 29.79077148 C98.52555912 31.64776297 98.53086505 33.50475276 98.53688049 35.36174011 C98.54581125 39.25294861 98.54339 43.14395189 98.53344727 47.03515625 C98.52197488 52.00838264 98.54214261 56.98089716 98.5713644 61.95403004 C98.58976335 65.7897742 98.5894263 69.62534908 98.58372688 73.46112633 C98.58357403 75.29385054 98.58958868 77.1265865 98.60201836 78.95926857 C98.61699155 81.52960647 98.6062047 84.09864642 98.58911133 86.66894531 C98.5987793 87.41778992 98.60844727 88.16663452 98.6184082 88.93817139 C98.54294658 94.3906119 97.41236765 98.80481667 94.08740234 103.20874023 C88.78902042 108.1328927 83.56082311 108.93621536 76.55371094 108.83984375 C75.63559128 108.84699905 74.71747162 108.85415436 73.77153015 108.86152649 C70.75911583 108.87833373 67.74820624 108.85906058 64.73583984 108.83764648 C62.63172279 108.83847577 60.52760581 108.84093741 58.42349243 108.84495544 C54.02382805 108.84780781 49.62467435 108.83316424 45.22509766 108.80566406 C39.59146932 108.77154062 33.95875122 108.77761902 28.32507896 108.79632664 C23.98412512 108.80690298 19.64338248 108.79795365 15.30244827 108.78294182 C13.22526298 108.77776707 11.14805558 108.77823321 9.07087326 108.78448677 C6.16753549 108.78994821 3.26549459 108.76953522 0.36230469 108.7421875 C-0.49187546 108.74871338 -1.3460556 108.75523926 -2.22612 108.76196289 C-8.76694117 108.65740872 -12.19809514 106.54622851 -17.16259766 102.27124023 C-21.04536152 97.69512568 -21.20665266 92.99774527 -21.18725586 87.20898438 C-21.19236679 86.41809921 -21.19747772 85.62721405 -21.20274353 84.81236267 C-21.21660798 82.20612963 -21.21568519 79.60016195 -21.21337891 76.99389648 C-21.21726747 75.17695518 -21.22160247 73.36001479 -21.22636414 71.54307556 C-21.2338195 67.73767142 -21.23353995 63.93236007 -21.22827148 60.12695312 C-21.22247669 55.25678263 -21.23941138 50.38699243 -21.26261616 45.5168848 C-21.27736631 41.76531259 -21.27822347 38.01383171 -21.27510643 34.26223564 C-21.27561896 32.46693608 -21.2808439 30.67163131 -21.29091835 28.87635994 C-21.30329086 26.36328723 -21.29648656 23.85095202 -21.28491211 21.33789062 C-21.29255585 20.60055695 -21.30019958 19.86322327 -21.30807495 19.10354614 C-21.2516479 13.54489429 -20.00085326 9.42722113 -16.15869141 5.34545898 C-15.56185547 4.8672168 -14.96501953 4.38897461 -14.35009766 3.89624023 C-13.75068359 3.40510742 -13.15126953 2.91397461 -12.53369141 2.40795898 C-8.63642715 -0.47507746 -4.66243438 0.03096737 0 0 Z " fill="#D2EEFA" transform="translate(292.91259765625,117.791259765625)"/>
<path d="M0 0 C1.37652237 -0.00788544 1.37652237 -0.00788544 2.78085327 -0.01593018 C5.80923571 -0.02911541 8.83709088 -0.02039647 11.86547852 -0.01025391 C13.97388306 -0.01227524 16.08228693 -0.01518717 18.19068909 -0.01895142 C22.60815084 -0.02337292 27.02543052 -0.01694983 31.44287109 -0.00292969 C37.09998562 0.01415146 42.75667282 0.00432652 48.41377163 -0.01364708 C52.7675548 -0.02449847 57.12123702 -0.02103214 61.47502327 -0.0132637 C63.56058872 -0.01126491 65.64616338 -0.01370969 67.73171806 -0.02070236 C70.64951651 -0.02833783 73.56662761 -0.01668252 76.484375 0 C77.34326828 -0.00607269 78.20216156 -0.01214539 79.08708191 -0.0184021 C84.9165471 0.0432124 89.23280315 1.01376868 93.67016602 5.10693359 C94.1484082 5.69474609 94.62665039 6.28255859 95.11938477 6.88818359 C95.85608398 7.76990234 95.85608398 7.76990234 96.60766602 8.66943359 C99.31273359 12.54640341 98.96124782 16.63978854 98.96801758 21.16088867 C98.97546494 22.34677834 98.97546494 22.34677834 98.98306274 23.55662537 C98.99767457 26.17366403 99.00448497 28.79064207 99.01000977 31.40771484 C99.01576232 33.22751365 99.02152004 35.04731243 99.02728271 36.86711121 C99.03779012 40.68444094 99.04363439 44.50174963 99.04711914 48.3190918 C99.05260127 53.20498826 99.07662436 58.09060568 99.10509109 62.97641468 C99.12373697 66.73655504 99.12892413 70.49662846 99.13045502 74.25681114 C99.13347801 76.05770072 99.14149461 77.85858922 99.1546402 79.65943336 C99.17174047 82.18226827 99.1698108 84.7044252 99.16333008 87.22729492 C99.17254486 87.96777069 99.18175964 88.70824646 99.19125366 89.47116089 C99.14652873 95.04353988 97.90468415 99.15956376 94.05297852 103.25146484 C93.15772461 103.96882813 93.15772461 103.96882813 92.24438477 104.70068359 C91.34526367 105.43738281 91.34526367 105.43738281 90.42797852 106.18896484 C86.55003292 109.05771014 82.62520372 108.55830164 77.98608398 108.58105469 C77.07205307 108.58923218 76.15802216 108.59740967 75.21629333 108.60583496 C72.18139301 108.63071263 69.14653963 108.6472137 66.11157227 108.66162109 C65.07529819 108.66694477 64.03902412 108.67226845 62.97134781 108.67775345 C57.48326608 108.70449911 51.99520719 108.72386691 46.50708008 108.73828125 C40.84435069 108.75490563 35.18220595 108.79966117 29.51969719 108.85065269 C25.16156364 108.88435525 20.8035681 108.89586219 16.44531631 108.90150833 C14.35856804 108.90821563 12.27182869 108.92342404 10.18520737 108.94739914 C7.25767631 108.97910881 4.33171129 108.9790782 1.40405273 108.97167969 C0.54763687 108.98808502 -0.30877899 109.00449036 -1.19114685 109.02139282 C-7.26591767 108.95880967 -11.68526631 107.5884814 -16.19311523 103.38818359 C-20.04743268 98.27069467 -20.78405582 93.14723721 -20.74243164 86.89599609 C-20.7526535 86.0883783 -20.76287537 85.2807605 -20.77340698 84.44866943 C-20.80100129 81.80319836 -20.79930184 79.15878064 -20.79467773 76.51318359 C-20.80246129 74.6604779 -20.8111326 72.80777574 -20.82064819 70.95507812 C-20.83552897 67.0817505 -20.83502133 63.20878764 -20.82446289 59.33544922 C-20.8128644 54.38553802 -20.84677423 49.4371214 -20.89315224 44.48745728 C-20.92269089 40.66454424 -20.92436214 36.84198888 -20.91813278 33.01898193 C-20.91915556 31.19461095 -20.9295626 29.37021898 -20.94975662 27.54595947 C-21.11644434 10.38693252 -21.11644434 10.38693252 -15.96835327 4.76757812 C-15.38252472 4.31237793 -14.79669617 3.85717773 -14.19311523 3.38818359 C-13.49033951 2.83915375 -12.78756378 2.2901239 -12.06349182 1.72445679 C-8.00861346 -0.16324857 -4.42163254 -0.03118907 0 0 Z " fill="#D2EEFA" transform="translate(141.193115234375,117.61181640625)"/>
<path d="M0 0 C0.73140813 0.00241508 1.46281627 0.00483017 2.21638829 0.00731844 C3.37958894 -0.00053658 3.37958894 -0.00053658 4.56628859 -0.00855029 C7.1788376 -0.02361709 9.79119191 -0.02425689 12.40378147 -0.02492338 C14.2711097 -0.03254033 16.13843477 -0.04096702 18.00575596 -0.05014616 C23.08832749 -0.07214252 28.17083884 -0.08089682 33.2534526 -0.08597261 C36.42579308 -0.08960978 39.59811765 -0.09584644 42.77045208 -0.102974 C53.82889969 -0.12748524 64.88730027 -0.14052425 75.94577366 -0.14406401 C86.26825751 -0.14770177 96.59044446 -0.17761008 106.91283751 -0.21946859 C115.7638173 -0.25410744 124.6146984 -0.26961133 133.46574557 -0.27031004 C138.75717001 -0.27110498 144.04829221 -0.27994267 149.33964688 -0.30830771 C154.31457782 -0.33437917 159.28895357 -0.33675501 164.26392132 -0.32065207 C166.09292769 -0.3188289 167.92196519 -0.325606 169.75090367 -0.34147078 C172.24209999 -0.36176791 174.73132361 -0.35147839 177.2224918 -0.33325773 C177.95166921 -0.3464577 178.68084663 -0.35965767 179.43212032 -0.37325764 C181.45207459 -0.33935267 181.45207459 -0.33935267 184.78293186 0.2814731 C187.63498329 3.80671473 188.92461061 7.98745771 190.48215061 12.2267856 C190.84201809 13.20432298 190.84201809 13.20432298 191.20915562 14.2016086 C191.71160733 15.57057032 192.2115026 16.94047279 192.70895725 18.31125826 C193.47157648 20.40962253 194.24484442 22.50384397 195.01925999 24.59787935 C195.50753051 25.93228064 195.99518249 27.26690847 196.48215061 28.6017856 C196.92389622 29.81108736 197.36564183 31.02038912 197.82077366 32.26633638 C198.78293186 35.2814731 198.78293186 35.2814731 198.78293186 38.2814731 C126.84293186 38.2814731 54.90293186 38.2814731 -19.21706814 38.2814731 C-17.96322216 32.63916619 -16.86103601 27.86287393 -14.90456814 22.56662935 C-14.46886501 21.38649263 -14.03316189 20.20635591 -13.58425564 18.99045748 C-13.13308376 17.78711763 -12.68191189 16.58377779 -12.21706814 15.3439731 C-11.76589626 14.11356294 -11.31472439 12.88315279 -10.84988064 11.61545748 C-6.55439355 0.06974738 -6.55439355 0.06974738 0 0 Z " fill="#C5865C" transform="translate(166.21706813573837,446.7185268998146)"/>
<path d="M0 0 C5.71053543 -0.2481016 11.41790846 -0.42904829 17.13256836 -0.54931641 C19.07387955 -0.59946277 21.01481565 -0.66760381 22.95483398 -0.75439453 C38.98830689 -1.45346875 38.98830689 -1.45346875 43.63769531 1.90576172 C45.48459966 4.51801747 46.72995133 7.06780371 48 10 C49.06859284 11.71294666 50.16538157 13.40861282 51.2890625 15.0859375 C52.4030542 16.84768738 53.51496631 18.61075361 54.625 20.375 C59.16457745 27.550051 63.73448853 34.70229504 68.375 41.8125 C73.93165142 50.33059792 79.41828168 58.89208041 84.88671875 67.46704102 C88.31971953 72.84189511 91.77644303 78.19898188 95.28125 83.52734375 C95.96848145 84.57301514 96.65571289 85.61868652 97.36376953 86.69604492 C98.6732937 88.68449331 99.98658233 90.67046932 101.30419922 92.65356445 C101.89217285 93.54648193 102.48014648 94.43939941 103.0859375 95.359375 C103.6020459 96.13764648 104.1181543 96.91591797 104.64990234 97.71777344 C106 100 106 100 108 105 C84.9 105 61.8 105 38 105 C35.52469384 99.43056113 33.11957063 93.94702036 31 88.25 C30.74001221 87.55447021 30.48002441 86.85894043 30.2121582 86.14233398 C28.73812124 82.14856791 27.39454517 78.14661173 26.1875 74.0625 C24.19364042 67.37423685 21.85581022 60.81856441 19.5 54.25 C19.11996826 53.18402588 18.73993652 52.11805176 18.34838867 51.01977539 C16.72112258 46.51217446 15.0752955 42.05324094 13.078125 37.6953125 C10.39542064 31.81358964 8.21731349 25.7360469 5.99853516 19.66845703 C5.24311621 17.60620765 4.47920597 15.54723015 3.71484375 13.48828125 C3.23125692 12.1720637 2.74816558 10.85566398 2.265625 9.5390625 C1.83024414 8.35521973 1.39486328 7.17137695 0.94628906 5.95166016 C0 3 0 3 0 0 Z " fill="#909BA5" transform="translate(337,407)"/>
<path d="M0 0 C0.905793 0.00565979 1.811586 0.01131958 2.74482727 0.01715088 C5.63901536 0.03954884 8.53196715 0.08975108 11.42578125 0.140625 C13.38735192 0.1606856 15.34894198 0.17893714 17.31054688 0.1953125 C22.12026831 0.23942482 26.92906515 0.30847559 31.73828125 0.390625 C31.10405355 5.25903254 29.7003557 9.64130912 27.97265625 14.2109375 C27.69738098 14.9508493 27.42210571 15.69076111 27.13848877 16.45309448 C26.5559754 18.01558087 25.97086084 19.57709969 25.38330078 21.13769531 C24.49963106 23.4854703 23.62410601 25.8361499 22.75 28.1875 C19.93034264 35.74392558 17.01214013 43.23516166 13.86865234 50.6640625 C12.00101896 55.1689717 10.33079923 59.74164304 8.67578125 64.328125 C8.32854004 65.28541504 7.98129883 66.24270508 7.62353516 67.22900391 C5.48400294 73.17640004 3.53493245 79.14936936 1.7421875 85.2109375 C0.47103649 89.23707337 -0.97054492 93.1867228 -2.44921875 97.140625 C-2.84294678 98.19805908 -2.84294678 98.19805908 -3.24462891 99.27685547 C-5.13348014 104.26238639 -5.13348014 104.26238639 -6.26171875 105.390625 C-8.43977594 105.48491842 -10.62093155 105.50805038 -12.80102539 105.50415039 C-13.48392136 105.50429642 -14.16681732 105.50444244 -14.8704071 105.5045929 C-17.13759489 105.50389376 -19.40470149 105.4961014 -21.671875 105.48828125 C-23.23986262 105.48641707 -24.80785082 105.48499317 -26.37583923 105.48399353 C-30.51048378 105.48016834 -34.64509341 105.47033806 -38.77972412 105.45928955 C-42.99572273 105.44907544 -47.21172697 105.44449591 -51.42773438 105.43945312 C-59.70574522 105.42871579 -67.98372765 105.41163936 -76.26171875 105.390625 C-75.05825401 102.31773313 -73.86271708 99.5398222 -72.046875 96.78125 C-71.61415283 96.11867188 -71.18143066 95.45609375 -70.7355957 94.7734375 C-70.26984131 94.06960938 -69.80408691 93.36578125 -69.32421875 92.640625 C-68.31892465 91.10422278 -67.3137186 89.56776295 -66.30859375 88.03125 C-65.79748047 87.25330078 -65.28636719 86.47535156 -64.75976562 85.67382812 C-62.51686613 82.25538026 -60.29456857 78.82374635 -58.07421875 75.390625 C-57.63263428 74.7087915 -57.1910498 74.02695801 -56.73608398 73.32446289 C-52.59566881 66.9243268 -48.49150491 60.5011482 -44.38671875 54.078125 C-38.40356751 44.71736562 -32.37914389 35.38495157 -26.3125 26.078125 C-24.23875987 22.89613245 -22.1742046 19.70845378 -20.1171875 16.515625 C-19.61485596 15.73638672 -19.11252441 14.95714844 -18.5949707 14.15429688 C-17.65349901 12.6928327 -16.71315017 11.23064428 -15.77416992 9.76757812 C-15.35498291 9.11724609 -14.9357959 8.46691406 -14.50390625 7.796875 C-14.14151855 7.23291016 -13.77913086 6.66894531 -13.40576172 6.08789062 C-12.83946045 5.24774414 -12.83946045 5.24774414 -12.26171875 4.390625 C-11.7363855 3.3073291 -11.7363855 3.3073291 -11.20043945 2.20214844 C-7.97400072 -0.81260731 -4.2421792 -0.09937173 0 0 Z " fill="#909BA5" transform="translate(143.26171875,406.609375)"/>
<path d="M0 0 C2.04301131 -0.00269961 4.08602137 -0.00658592 6.12902832 -0.01159668 C10.39555177 -0.01746962 14.66173857 -0.00900006 18.92822266 0.00976562 C24.37180638 0.03255362 29.81460098 0.01941868 35.25815582 -0.00452423 C39.47232917 -0.01904193 43.68631826 -0.01434892 47.90049744 -0.00401306 C49.90657141 -0.00136226 51.91266261 -0.00455695 53.91871643 -0.01393127 C79.10202182 -0.10581365 79.10202182 -0.10581365 89.25 9.60546875 C95.64694201 16.7729515 98.27109097 24.04758236 98.25927734 33.65698242 C98.26599457 34.44973572 98.27271179 35.24248901 98.27963257 36.05926514 C98.29855924 38.66848095 98.3025345 41.27743864 98.3046875 43.88671875 C98.31112072 45.71267296 98.31784947 47.53862616 98.32485962 49.36457825 C98.33682022 53.19009793 98.34054186 57.0155274 98.33935547 60.84106445 C98.33915272 65.71865402 98.36641489 70.59565809 98.40089989 75.47310925 C98.42325437 79.24547425 98.42719035 83.01770046 98.42613602 86.79012489 C98.42848066 88.58688683 98.4372394 90.38365327 98.45280075 92.18034935 C98.55819204 105.60933776 97.82226996 116.48866591 88.05859375 126.65234375 C82.97050083 131.22687215 77.69681578 133.6368838 70.83456421 133.67842102 C69.61111298 133.68915398 69.61111298 133.68915398 68.36294556 133.70010376 C67.47666473 133.70279266 66.59038391 133.70548157 65.67724609 133.70825195 C64.736875 133.71482315 63.79650391 133.72139435 62.82763672 133.72816467 C59.71581946 133.74787235 56.60405046 133.75955599 53.4921875 133.76953125 C52.42714619 133.77360678 51.36210487 133.7776823 50.26478958 133.78188133 C44.62525884 133.8027334 38.98575235 133.81703768 33.34619141 133.82641602 C27.53583927 133.83746578 21.72587162 133.87185195 15.91565514 133.91158772 C11.43563144 133.93779948 6.95569863 133.94611202 2.47560501 133.94969749 C0.33470698 133.95455329 -1.80618727 133.96613838 -3.94701004 133.98473549 C-6.95277132 134.00921886 -9.95754737 134.00814475 -12.96337891 134.0012207 C-14.27458206 134.02043579 -14.27458206 134.02043579 -15.61227417 134.04003906 C-24.01127237 133.96998815 -32.27905682 131.35309096 -38.44354248 125.43554688 C-47.06085602 115.09993844 -46.9231374 104.26561789 -46.828125 91.53125 C-46.83217639 89.6041622 -46.83800749 87.67707741 -46.84552002 85.75 C-46.85432059 81.72886705 -46.84165621 77.70853871 -46.81347656 73.6875 C-46.77929253 68.5631504 -46.79900012 63.44068685 -46.83491135 58.31640625 C-46.85671363 54.34230639 -46.8496373 50.36864516 -46.83414459 46.39453125 C-46.83017532 44.50650808 -46.83493554 42.61844355 -46.84902191 40.73046875 C-46.91885209 28.7441932 -46.30101828 19.04573423 -38.25823975 9.40625 C-27.6430502 -0.98998244 -13.80710127 -0.06452082 0 0 Z M-33.03125 23.53125 C-34.24409225 27.16977674 -34.18670984 30.51532691 -34.19238281 34.30395508 C-34.19734772 35.09454819 -34.20231262 35.8851413 -34.20742798 36.69969177 C-34.22203981 39.31673044 -34.2288502 41.93370848 -34.234375 44.55078125 C-34.24012756 46.37058005 -34.24588528 48.19037884 -34.25164795 50.01017761 C-34.26215535 53.82750735 -34.26799963 57.64481604 -34.27148438 61.4621582 C-34.2769665 66.34805466 -34.3009896 71.23367208 -34.32945633 76.11948109 C-34.3481022 79.87962144 -34.35328936 83.63969487 -34.35482025 87.39987755 C-34.35784324 89.20076713 -34.36585985 91.00165563 -34.37900543 92.80249977 C-34.3961057 95.32533467 -34.39417604 97.8474916 -34.38769531 100.37036133 C-34.3969101 101.1108371 -34.40612488 101.85131287 -34.4156189 102.61422729 C-34.37089396 108.18660629 -33.12904938 112.30263017 -29.27734375 116.39453125 C-28.38208984 117.11189453 -28.38208984 117.11189453 -27.46875 117.84375 C-26.86933594 118.33488281 -26.26992188 118.82601562 -25.65234375 119.33203125 C-21.77439816 122.20077655 -17.84956896 121.70136805 -13.21044922 121.72412109 C-12.2964183 121.73229858 -11.38238739 121.74047607 -10.44065857 121.74890137 C-7.40575824 121.77377903 -4.37090486 121.7902801 -1.3359375 121.8046875 C-0.29966343 121.81001118 0.73661064 121.81533485 1.80428696 121.82081985 C7.29236868 121.84756551 12.78042758 121.86693332 18.26855469 121.88134766 C23.93128407 121.89797203 29.59342882 121.94272757 35.25593758 121.9937191 C39.61407112 122.02742165 43.97206667 122.0389286 48.33031845 122.04457474 C50.41706672 122.05128203 52.50380608 122.06649044 54.5904274 122.09046555 C57.51795846 122.12217521 60.44392348 122.12214461 63.37158203 122.11474609 C64.22799789 122.13115143 65.08441376 122.14755676 65.96678162 122.16445923 C72.04155243 122.10187608 76.46090108 120.73154781 80.96875 116.53125 C84.82306744 111.41376108 85.55969059 106.29030362 85.51806641 100.0390625 C85.52828827 99.2314447 85.53851013 98.4238269 85.54904175 97.59173584 C85.57663606 94.94626477 85.5749366 92.30184704 85.5703125 89.65625 C85.57809605 87.8035443 85.58676737 85.95084214 85.59628296 84.09814453 C85.61116374 80.22481691 85.61065609 76.35185405 85.60009766 72.47851562 C85.58849916 67.52860443 85.62240899 62.58018781 85.668787 57.63052368 C85.69832566 53.80761065 85.69999691 49.98505528 85.69376755 46.16204834 C85.69479032 44.33767735 85.70519736 42.51328539 85.72539139 40.68902588 C86.21471422 28.4218597 86.21471422 28.4218597 80.74398804 17.91064453 C80.15815948 17.45544434 79.57233093 17.00024414 78.96875 16.53125 C78.26786758 15.98254745 77.56698517 15.43384491 76.84486389 14.86851501 C72.76487781 12.97150299 69.13249943 13.10418562 64.68383789 13.12719727 C63.75640274 13.12033401 62.82896759 13.11347076 61.87342834 13.10639954 C58.81259787 13.08812233 55.75227951 13.09197043 52.69140625 13.09765625 C50.56058078 13.09309488 48.42975679 13.08778943 46.29893494 13.08177185 C41.83440166 13.07283891 37.37004725 13.07526601 32.90551758 13.08520508 C27.18778366 13.09669443 21.47066735 13.07648436 15.75301456 13.04728794 C11.35290106 13.02893081 6.95293569 13.02921747 2.5527935 13.03492546 C0.44489106 13.03507874 -1.66302138 13.02902923 -3.77088737 13.01663399 C-6.71996539 13.00173547 -9.66790079 13.0123931 -12.61694336 13.02954102 C-13.91930939 13.01503906 -13.91930939 13.01503906 -15.24798584 13.00024414 C-23.66525285 13.10259145 -28.16382204 16.9949896 -33.03125 23.53125 Z " fill="#6AAF82" transform="translate(306.03125,104.46875)"/>
<path d="M0 0 C1.12298744 -0.01007584 1.12298744 -0.01007584 2.2686615 -0.02035522 C4.73540955 -0.03930033 7.20188496 -0.04325778 9.66870117 -0.04541016 C11.39117035 -0.05184105 13.11363844 -0.05856963 14.83610535 -0.06558228 C18.4447991 -0.0775467 22.05339719 -0.08126401 25.66210938 -0.08007812 C30.27211697 -0.07987511 34.88150691 -0.10716288 39.49136829 -0.14162254 C43.04915651 -0.1639303 46.60679708 -0.16791447 50.16464806 -0.16685867 C51.8634116 -0.16920935 53.56217953 -0.17800268 55.26087379 -0.19352341 C73.41146819 -0.34382222 73.41146819 -0.34382222 81.26635742 6.95458984 C83.94791119 11.14881497 84.73238137 14.80627441 85.52416992 19.66552734 C85.68175781 20.54023682 85.8393457 21.41494629 86.00170898 22.31616211 C86.32337842 24.10565144 86.63786337 25.89644744 86.94506836 27.68847656 C87.37058834 30.12675183 87.8319338 32.55413028 88.31323242 34.98193359 C88.45486816 35.7013916 88.59650391 36.42084961 88.74243164 37.16210938 C88.87665527 37.8438623 89.01087891 38.52561523 89.14916992 39.22802734 C89.97161952 43.45839311 90.39916992 46.94718461 90.39916992 51.29052734 C51.45916992 51.29052734 12.51916992 51.29052734 -27.60083008 51.29052734 C-26.84406011 42.96605764 -25.80678829 35.18999048 -24.22583008 27.04052734 C-24.01700195 25.90873047 -23.80817383 24.77693359 -23.59301758 23.61083984 C-21.84001356 14.48239209 -20.45904497 7.79127777 -12.60083008 2.29052734 C-8.42794553 0.18824034 -4.58643351 -0.00594868 0 0 Z " fill="#4D5A61" transform="translate(224.600830078125,355.70947265625)"/>
<path d="M0 0 C1.03046448 -0.00571014 2.06092896 -0.01142029 3.12261963 -0.01730347 C4.25771469 -0.01842133 5.39280975 -0.01953918 6.56230164 -0.02069092 C7.7542514 -0.02565582 8.94620117 -0.03062073 10.17427063 -0.03573608 C13.44918264 -0.04785765 16.72405893 -0.05530641 19.99898934 -0.05974674 C22.04500559 -0.06267687 24.09101622 -0.06678159 26.13702965 -0.07125092 C32.53839127 -0.08492838 38.93974007 -0.09459344 45.3411153 -0.09845281 C52.73064201 -0.10293233 60.11998364 -0.12047412 67.50945407 -0.1494534 C73.22078178 -0.17107386 78.93205744 -0.1811573 84.64342564 -0.18249393 C88.05467699 -0.18354184 91.4657544 -0.1894462 94.87696266 -0.20731354 C98.68367731 -0.22433131 102.48993959 -0.22250387 106.29667664 -0.21600342 C107.42569901 -0.2252182 108.55472137 -0.23443298 109.71795654 -0.243927 C110.75688049 -0.23835785 111.79580444 -0.2327887 112.86621094 -0.22705078 C113.76604863 -0.22851734 114.66588633 -0.2299839 115.59299183 -0.2314949 C118.78028044 0.2369612 120.55927291 1.19509341 123.12358093 3.14044189 C128.90895804 12.78273707 128.53333287 25.00870548 130.12358093 36.14044189 C81.61358093 36.14044189 33.10358093 36.14044189 -16.87641907 36.14044189 C-16.87641907 29.90550547 -16.85112655 24.45769954 -16.06391907 18.39044189 C-15.91309875 17.15809814 -15.76227844 15.92575439 -15.60688782 14.65606689 C-14.31273691 8.4275331 -12.10123608 4.7576229 -6.87641907 1.14044189 C-4.40422883 -0.09565322 -2.76587648 0.00915488 0 0 Z " fill="#B8C0CA" transform="translate(215.8764190673828,-0.14044189453125)"/>
<path d="M0 0 C7.4527043 4.59096327 12.61061502 11.58564408 15.140625 19.953125 C17.5923395 30.93476287 16.81779534 40.16667825 10.8828125 49.9609375 C5.3485404 57.61882564 -1.79514766 62.2277561 -10.609375 65.47265625 C-21.29076533 66.69244465 -31.43939666 65.98489616 -40.328125 59.484375 C-48.2404244 52.74728477 -53.90821726 45.39566638 -54.98046875 34.80859375 C-55.15521576 24.38544875 -53.75890625 15.74928735 -47.359375 7.09765625 C-33.3368177 -6.28751208 -17.1073624 -8.99973206 0 0 Z " fill="#69AF81" transform="translate(388.609375,286.52734375)"/>
<path d="M0 0 C0.76147842 -0.00686325 1.52295685 -0.0137265 2.30751038 -0.02079773 C4.82189647 -0.03908153 7.33565941 -0.03522555 9.85009766 -0.02954102 C11.60120852 -0.03410266 13.3523176 -0.03940818 15.10342407 -0.04542542 C18.77361319 -0.05436005 22.44358478 -0.05193012 26.11376953 -0.04199219 C30.81034956 -0.03051258 35.5061766 -0.0506964 40.2026577 -0.07990932 C43.81957753 -0.09828435 47.43631744 -0.09797611 51.05327225 -0.0922718 C52.78437988 -0.09211869 54.51549979 -0.09815475 56.24656296 -0.11056328 C58.67136114 -0.12549338 61.09477544 -0.11478201 63.51953125 -0.09765625 C64.58581001 -0.1121582 64.58581001 -0.1121582 65.67362976 -0.12695312 C70.68999007 -0.05301331 73.50949358 1.28702 77.38916016 4.40405273 C80.25723722 7.84574521 80.93220033 10.85162877 80.73681641 15.34545898 C80.09908802 19.12167092 78.693367 21.3115646 76.38916016 24.40405273 C71.78521713 27.28320661 68.22538779 27.78600042 62.8425293 27.80810547 C61.74617409 27.81840034 61.74617409 27.81840034 60.62767029 27.8289032 C58.22635126 27.84711243 55.82568926 27.84334229 53.42431641 27.83764648 C51.74572031 27.84221117 50.06712608 27.8475176 48.38853455 27.85353088 C44.87572625 27.86245047 41.36314544 27.86005213 37.8503418 27.85009766 C33.36016965 27.8386102 28.87078421 27.85882146 24.38071537 27.88801479 C20.91559403 27.90640657 17.45066017 27.90607843 13.98550224 27.90037727 C12.33057998 27.90022442 10.67564471 27.90623912 9.02076912 27.91866875 C6.70174673 27.93363381 4.38416447 27.92286307 2.06518555 27.90576172 C0.74869522 27.90559555 -0.5677951 27.90542938 -1.92417908 27.90525818 C-6.50007251 27.28316061 -8.80965396 25.99419004 -12.61083984 23.40405273 C-15.35396889 19.51057925 -16.15406979 16.03723198 -15.96630859 11.36108398 C-15.22903283 7.30201629 -12.80306238 4.58035552 -9.94589233 1.76133728 C-6.68995952 -0.13122287 -3.66248243 -0.02306222 0 0 Z " fill="#EBBD6B" transform="translate(223.61083984375,61.595947265625)"/>
<path d="M0 0 C9.24 0 18.48 0 28 0 C46.39874261 39.56318107 46.39874261 39.56318107 54.27581787 56.92868042 C54.88265119 58.26578971 55.49076132 59.60232028 56.10015869 60.93826294 C56.93908421 62.77871909 57.77243879 64.62171164 58.60546875 66.46484375 C59.30385864 68.00579712 59.30385864 68.00579712 60.01635742 69.57788086 C61 72 61 72 61 74 C49.78 74 38.56 74 27 74 C24.52469384 68.43056113 22.11957063 62.94702036 20 57.25 C19.61001831 56.20670532 19.61001831 56.20670532 19.2121582 55.14233398 C17.73812124 51.14856791 16.39454517 47.14661173 15.1875 43.0625 C13.19364042 36.37423685 10.85581022 29.81856441 8.5 23.25 C8.11996826 22.18402588 7.73993652 21.11805176 7.34838867 20.01977539 C5.34782906 14.47813447 3.22921558 9.06432975 0.71679688 3.73339844 C0 2 0 2 0 0 Z " fill="#B8C0CA" transform="translate(348,438)"/>
<path d="M0 0 C9.24 0 18.48 0 28 0 C24.67692308 11.07692308 24.67692308 11.07692308 22.8125 15.25 C17.454122 27.80159452 12.87334962 40.73708245 9.00390625 53.8203125 C7.73275524 57.84644837 6.29117383 61.7960978 4.8125 65.75 C4.55001465 66.45495605 4.2875293 67.15991211 4.01708984 67.88623047 C2.12823861 72.87176139 2.12823861 72.87176139 1 74 C-1.52094076 74.08847743 -4.01430893 74.11527301 -6.53515625 74.09765625 C-7.66503212 74.09553383 -7.66503212 74.09553383 -8.81773376 74.09336853 C-11.2326956 74.08775376 -13.64756601 74.07519883 -16.0625 74.0625 C-17.69596221 74.0574869 -19.32942586 74.05292366 -20.96289062 74.04882812 C-24.97529585 74.03777954 -28.98763241 74.02050506 -33 74 C-31.58313881 69.48200274 -29.82084722 65.20733786 -27.83203125 60.91796875 C-27.52001266 60.23824005 -27.20799408 59.55851135 -26.88652039 58.85818481 C-25.86460904 56.63334152 -24.83851883 54.41045162 -23.8125 52.1875 C-22.7377981 49.84999241 -21.66422086 47.51197031 -20.59066772 45.17393494 C-19.85146336 43.5642833 -19.1118962 41.95479822 -18.37197876 40.34547424 C-14.38868046 31.67961203 -10.44279298 22.99684713 -6.5 14.3125 C-5.84093348 12.86155783 -5.18183603 11.4106297 -4.52270508 9.9597168 C-3.01463965 6.64003651 -1.50732638 3.3200163 0 0 Z " fill="#B8C0CA" transform="translate(136,438)"/>
<path d="M0 0 C0.9925882 -0.00990463 1.98517639 -0.01980927 3.00784302 -0.03001404 C4.09056488 -0.02551239 5.17328674 -0.02101074 6.28881836 -0.01637268 C8.00643875 -0.02666756 8.00643875 -0.02666756 9.75875854 -0.03717041 C13.54885205 -0.05549183 17.33853377 -0.05159344 21.12866211 -0.0459137 C23.7589532 -0.0504726 26.3892431 -0.05577729 29.01953125 -0.0617981 C34.53413849 -0.07182798 40.04862846 -0.06852711 45.56323242 -0.05836487 C51.9367727 -0.04687931 58.3098924 -0.06096659 64.68337727 -0.08776134 C70.8172785 -0.11258274 76.95098556 -0.11509788 83.08493042 -0.10864449 C85.69408874 -0.10849082 88.303255 -0.11457208 90.91238403 -0.12693596 C94.55641208 -0.1417713 98.19950751 -0.13122289 101.84350586 -0.11402893 C103.46758865 -0.12853088 103.46758865 -0.12853088 105.1244812 -0.14332581 C112.38997229 -0.07134244 112.38997229 -0.07134244 115.73632812 2.20028687 C117.70746086 5.4425279 117.59662565 7.67443527 117.06616211 11.38768005 C115.73632812 13.57408142 115.73632812 13.57408142 113.06616211 15.38768005 C109.33090162 15.9989808 105.62111545 15.93350829 101.84350586 15.90525818 C100.6984256 15.91226746 99.55334534 15.91927673 98.37356567 15.92649841 C94.58335213 15.94412304 90.79388343 15.93243897 87.00366211 15.91893005 C84.37337093 15.92162366 81.74308073 15.92550498 79.11279297 15.93052673 C73.59814361 15.93780178 68.0837086 15.92821943 62.5690918 15.90916443 C56.19553544 15.88739565 49.82249091 15.89444715 43.44894695 15.91647005 C37.31502689 15.93681576 31.18133357 15.93465405 25.0473938 15.92294312 C22.43824187 15.92027116 19.82907691 15.92356197 17.21994019 15.93286133 C13.57587884 15.94299839 9.93280592 15.92756379 6.28881836 15.90525818 C5.2060965 15.9133551 4.12337463 15.92145203 3.00784302 15.92979431 C-4.29074947 15.8468566 -4.29074947 15.8468566 -7.60205078 13.48252869 C-9.90562322 9.85910003 -9.47187905 7.6247542 -8.93383789 3.38768005 C-6.08427609 0.53980757 -3.95882039 0.01116873 0 0 Z " fill="#4D5961" transform="translate(201.933837890625,293.61231994628906)"/>
<path d="M0 0 C1.70299004 -0.00569504 1.70299004 -0.00569504 3.44038391 -0.01150513 C7.19816598 -0.01892246 10.95517711 0.00248964 14.71289062 0.02490234 C17.32075917 0.02728615 19.92862944 0.02819222 22.53649902 0.02767944 C28.00408536 0.02955174 33.47144952 0.04690541 38.93896484 0.07421875 C45.25787177 0.10566889 51.57653542 0.11621489 57.89551497 0.11474764 C63.97707837 0.11352628 70.05854976 0.12396112 76.14009094 0.14033127 C78.72690859 0.14670365 81.3137334 0.15063919 83.90055847 0.15211868 C87.51325717 0.1564469 91.12564842 0.17393816 94.73828125 0.1953125 C95.81165237 0.19440613 96.8850235 0.19349976 97.99092102 0.19256592 C99.46718208 0.20536087 99.46718208 0.20536087 100.9732666 0.21841431 C101.82718239 0.221766 102.68109818 0.22511768 103.5608902 0.22857094 C106.10179602 0.51177074 107.71341241 1.12566194 109.86914062 2.48583984 C111.42688998 5.60133856 111.43394684 9.09027864 110.86914062 12.48583984 C109.22843096 14.64664714 108.33946268 15.40639033 105.6342926 15.86336327 C104.31690346 15.86505988 104.31690346 15.86505988 102.97290039 15.86679077 C101.96341339 15.87525024 100.95392639 15.88370972 99.91384888 15.89242554 C98.80725922 15.88635284 97.70066956 15.88028015 96.56054688 15.87402344 C95.39449921 15.8792804 94.22845154 15.88453735 93.02706909 15.88995361 C89.16179114 15.90318793 85.29692297 15.89440303 81.43164062 15.88427734 C78.7526803 15.88629709 76.07373257 15.8892028 73.39477539 15.89297485 C67.7758335 15.89843405 62.15700987 15.89123658 56.53808594 15.87695312 C50.04020873 15.86062618 43.5426139 15.86591458 37.04474354 15.88243234 C31.46758766 15.89604263 25.89051684 15.89796915 20.31334972 15.89011633 C16.98155989 15.88543724 13.64993205 15.88599769 10.31814575 15.8947258 C6.60447924 15.90231858 2.89135998 15.89076578 -0.82226562 15.87402344 C-1.92885529 15.88009613 -3.03544495 15.88616882 -4.17556763 15.89242554 C-5.18505463 15.88396606 -6.19454163 15.87550659 -7.23461914 15.86679077 C-8.11287857 15.86565969 -8.991138 15.86452862 -9.89601135 15.86336327 C-12.13085938 15.48583984 -12.13085938 15.48583984 -13.90953064 14.20812416 C-15.62571165 11.78801272 -15.54322972 9.41782596 -15.62695312 6.52099609 C-13.73944882 -1.22223024 -6.41392571 -0.06715869 0 0 Z " fill="#4D5961" transform="translate(208.130859375,266.51416015625)"/>
<path d="M0 0 C6.30570214 3.46195411 9.8652936 6.90823061 12.1875 13.75 C13.16145149 19.33398854 12.12027927 24.90075111 9.1875 29.75 C5.26488247 33.98909198 0.7824209 38.22421225 -5.109375 39.0859375 C-11.95742902 39.19498295 -17.22099864 38.08561831 -22.34765625 33.32421875 C-27.25293774 27.78968833 -28.28494373 22.64532817 -28.12109375 15.46484375 C-27.36378813 8.80247148 -23.47234337 5.05909002 -18.49609375 0.9140625 C-13.39802584 -2.61081972 -5.58919926 -2.26024761 0 0 Z " fill="#EABD6B" transform="translate(150.8125,298.25)"/>
<path d="M0 0 C4.10997383 2.97023319 7.25331448 6.52556843 8.859375 11.34375 C9.55382339 18.39069345 9.36893175 24.62248409 4.859375 30.34375 C-0.93874592 35.68688759 -5.69404141 37.73178174 -13.578125 37.6171875 C-19.21814302 37.01535631 -22.70844389 34.03827092 -26.453125 29.96875 C-30.25210682 25.19722884 -31.65701311 20.58471486 -31.4453125 14.421875 C-30.57890191 8.51251046 -27.78819341 4.53933053 -23.140625 0.90625 C-16.14670357 -4.10697102 -7.44281114 -4.16797424 0 0 Z " fill="#EABD6B" transform="translate(380.140625,299.65625)"/>
<path d="M0 0 C1.08809212 0.00636726 1.08809212 0.00636726 2.19816589 0.01286316 C4.50098766 0.02957332 6.80291428 0.06720915 9.10546875 0.10546875 C10.67251335 0.12052559 12.23957175 0.13421225 13.80664062 0.14648438 C17.63575832 0.17945144 21.46421209 0.23117883 25.29296875 0.29296875 C24.10948853 1.2224231 24.10948853 1.2224231 22.90209961 2.1706543 C13.42552825 9.87906964 14.55877893 24.99109218 13.29296875 36.29296875 C2.40296875 36.29296875 -8.48703125 36.29296875 -19.70703125 36.29296875 C-19.10890625 31.77609375 -18.51078125 27.25921875 -17.89453125 22.60546875 C-17.71301514 21.18919189 -17.53149902 19.77291504 -17.34448242 18.3137207 C-17.18955322 17.18925537 -17.03462402 16.06479004 -16.875 14.90625 C-16.72313232 13.75938721 -16.57126465 12.61252441 -16.41479492 11.4309082 C-15.4190547 7.01619656 -14.02472454 4.36477041 -10.5012207 1.4987793 C-6.95242752 -0.03267457 -3.79209396 -0.08435898 0 0 Z " fill="#909BA5" transform="translate(185.70703125,-0.29296875)"/>
<path d="M0 0 C3.43177746 2.0085448 6.2103492 4.4206984 8 8 C8.40141531 13.21839899 7.9955918 16.65156028 5 21 C1.85252391 23.56725954 -1.05862476 24.84630608 -5.0625 25.5 C-9.64371205 24.72021923 -12.48480297 22.36367733 -15.875 19.3125 C-17.6815634 15.59900857 -17.64441979 12.04163279 -17 8 C-13.00397724 0.42133615 -8.23195549 -1.46954727 0 0 Z " fill="#E4EAEE" transform="translate(133,62)"/>
<path d="M0 0 C4.18459301 1.72841885 6.20718739 3.84822343 8 8 C8.56872801 13.21334006 7.9156441 16.62653385 5 21 C1.81242488 23.75290579 -0.27591016 24.88151257 -4.4375 25.5625 C-8.99353457 24.84312612 -11.72871915 23.20939175 -15 20 C-17.35475658 16.1095326 -17.61728784 12.47533682 -17 8 C-12.39749756 0.88447475 -8.30091506 -0.7912484 0 0 Z " fill="#E4EAEE" transform="translate(388,62)"/>
</svg>
